<?xml version="1.0" encoding="UTF-8"?>
<!DOCTYPE svg PUBLIC "-//W3C//DTD SVG 1.1//EN" "http://www.w3.org/Graphics/SVG/1.1/DTD/svg11.dtd">
<svg xmlns="http://www.w3.org/2000/svg" version="1.1" width="360px" height="408px" style="shape-rendering:geometricPrecision; text-rendering:geometricPrecision; image-rendering:optimizeQuality; fill-rule:evenodd; clip-rule:evenodd" xmlns:xlink="http://www.w3.org/1999/xlink">
<g><path style="opacity:0.006" fill="#fefefe" d="M -0.5,-0.5 C 91.5,-0.5 183.5,-0.5 275.5,-0.5C 260.527,17.4392 246.027,35.7726 232,54.5C 228.832,56.7515 225.499,58.7515 222,60.5C 216.207,53.7255 210.873,46.7255 206,39.5C 204.739,39.7591 203.739,40.4258 203,41.5C 201.482,48.0693 198.816,54.0693 195,59.5C 190.853,60.7078 187.02,59.8744 183.5,57C 178.953,52.946 174.286,49.1127 169.5,45.5C 166.196,49.4181 163.363,53.7514 161,58.5C 156.422,64.6284 150.589,66.1284 143.5,63C 137.285,60.3899 131.285,57.5566 125.5,54.5C 126.489,59.6157 127.156,64.7824 127.5,70C 127.727,74.0765 126.893,77.9099 125,81.5C 121.591,82.6219 118.091,82.7886 114.5,82C 108.985,80.4925 103.652,78.8259 98.5,77C 97.1955,77.804 96.5288,78.9707 96.5,80.5C 97.4017,85.7908 97.735,91.1242 97.5,96.5C 72.6799,88.8924 48.3466,79.8924 24.5,69.5C 23.914,69.7093 23.414,70.0426 23,70.5C 32.2568,95.0736 42.4235,119.407 53.5,143.5C 50.1117,143.611 46.7784,143.611 43.5,143.5C 46.78,151.623 48.9467,159.956 50,168.5C 49.1667,169.333 48.3333,170.167 47.5,171C 43.5319,171.942 39.5319,172.775 35.5,173.5C 41.1024,177.758 44.9358,183.092 47,189.5C 44.2774,186.443 41.944,183.11 40,179.5C 38.2796,184.446 35.4462,188.613 31.5,192C 29.1667,192.667 26.8333,192.667 24.5,192C 22.4023,189.146 20.069,186.479 17.5,184C 15.9556,182.813 14.2889,182.48 12.5,183C 10.9161,193.383 10.0827,203.883 10,214.5C 7.07334,217.712 3.57334,220.045 -0.5,221.5C -0.5,147.5 -0.5,73.5 -0.5,-0.5 Z"/></g>
<g><path style="opacity:0.007" fill="#fefefe" d="M 278.5,-0.5 C 305.5,-0.5 332.5,-0.5 359.5,-0.5C 359.5,41.8333 359.5,84.1667 359.5,126.5C 356.598,125.216 353.598,124.216 350.5,123.5C 349.385,116.99 347.385,110.824 344.5,105C 343.5,104.333 342.5,104.333 341.5,105C 339.317,107.35 336.984,109.517 334.5,111.5C 332.133,109.296 329.633,107.296 327,105.5C 326.127,105.735 325.293,106.069 324.5,106.5C 323.881,111.906 321.547,116.406 317.5,120C 309.096,124.576 301.096,129.742 293.5,135.5C 291.541,134.252 290.041,132.585 289,130.5C 285.711,87.5417 282.711,44.5417 280,1.5C 279.283,0.955796 278.783,0.28913 278.5,-0.5 Z"/></g>
<g><path style="opacity:0.991" fill="#120e14" d="M 275.5,-0.5 C 276.5,-0.5 277.5,-0.5 278.5,-0.5C 278.783,0.28913 279.283,0.955796 280,1.5C 282.711,44.5417 285.711,87.5417 289,130.5C 290.041,132.585 291.541,134.252 293.5,135.5C 301.096,129.742 309.096,124.576 317.5,120C 321.547,116.406 323.881,111.906 324.5,106.5C 325.293,106.069 326.127,105.735 327,105.5C 329.633,107.296 332.133,109.296 334.5,111.5C 336.984,109.517 339.317,107.35 341.5,105C 342.5,104.333 343.5,104.333 344.5,105C 347.385,110.824 349.385,116.99 350.5,123.5C 353.598,124.216 356.598,125.216 359.5,126.5C 359.5,127.5 359.5,128.5 359.5,129.5C 356.168,132 353.334,135 351,138.5C 347.639,165.373 337.139,188.873 319.5,209C 319.645,209.772 319.978,210.439 320.5,211C 339.016,218.846 351.183,232.346 357,251.5C 359.277,264.776 356.944,277.109 350,288.5C 341.939,296.978 332.106,299.811 320.5,297C 315.039,295.431 309.706,293.598 304.5,291.5C 302.625,300.287 299.458,308.62 295,316.5C 285.21,332.959 273.876,348.293 261,362.5C 248,374.833 235,387.167 222,399.5C 219.946,402.047 218.113,404.714 216.5,407.5C 216.167,407.5 215.833,407.5 215.5,407.5C 214.208,404.599 212.208,402.266 209.5,400.5C 207.091,402.918 204.424,404.918 201.5,406.5C 198.121,403.948 194.621,401.615 191,399.5C 187.384,400.45 185.05,402.783 184,406.5C 181.158,402.644 179.491,398.31 179,393.5C 178.501,387.509 178.334,381.509 178.5,375.5C 174.154,375.334 169.821,375.501 165.5,376C 152.181,383.367 137.848,386.867 122.5,386.5C 115.66,386.773 108.993,385.94 102.5,384C 105.264,383.468 107.93,382.634 110.5,381.5C 111.521,380.998 111.688,380.332 111,379.5C 102.644,381.477 94.1436,381.977 85.5,381C 80.8399,380.342 78.3399,377.842 78,373.5C 87.7296,369.437 94.3963,362.437 98,352.5C 100.595,344.001 101.595,335.335 101,326.5C 88.2066,312.688 78.2066,297.022 71,279.5C 63.1281,276.483 55.9614,272.316 49.5,267C 43.3025,260.468 36.8025,254.301 30,248.5C 27.6227,244.912 25.1227,241.412 22.5,238C 13.4816,235.502 5.81494,231.002 -0.5,224.5C -0.5,223.5 -0.5,222.5 -0.5,221.5C 3.57334,220.045 7.07334,217.712 10,214.5C 10.0827,203.883 10.9161,193.383 12.5,183C 14.2889,182.48 15.9556,182.813 17.5,184C 20.069,186.479 22.4023,189.146 24.5,192C 26.8333,192.667 29.1667,192.667 31.5,192C 35.4462,188.613 38.2796,184.446 40,179.5C 41.944,183.11 44.2774,186.443 47,189.5C 44.9358,183.092 41.1024,177.758 35.5,173.5C 39.5319,172.775 43.5319,171.942 47.5,171C 48.3333,170.167 49.1667,169.333 50,168.5C 48.9467,159.956 46.78,151.623 43.5,143.5C 46.7784,143.611 50.1117,143.611 53.5,143.5C 42.4235,119.407 32.2568,95.0736 23,70.5C 23.414,70.0426 23.914,69.7093 24.5,69.5C 48.3466,79.8924 72.6799,88.8924 97.5,96.5C 97.735,91.1242 97.4017,85.7908 96.5,80.5C 96.5288,78.9707 97.1955,77.804 98.5,77C 103.652,78.8259 108.985,80.4925 114.5,82C 118.091,82.7886 121.591,82.6219 125,81.5C 126.893,77.9099 127.727,74.0765 127.5,70C 127.156,64.7824 126.489,59.6157 125.5,54.5C 131.285,57.5566 137.285,60.3899 143.5,63C 150.589,66.1284 156.422,64.6284 161,58.5C 163.363,53.7514 166.196,49.4181 169.5,45.5C 174.286,49.1127 178.953,52.946 183.5,57C 187.02,59.8744 190.853,60.7078 195,59.5C 198.816,54.0693 201.482,48.0693 203,41.5C 203.739,40.4258 204.739,39.7591 206,39.5C 210.873,46.7255 216.207,53.7255 222,60.5C 225.499,58.7515 228.832,56.7515 232,54.5C 246.027,35.7726 260.527,17.4392 275.5,-0.5 Z"/></g>
<g><path style="opacity:1" fill="#8665ab" d="M 277.5,9.5 C 276.833,44.8333 276.167,80.1667 275.5,115.5C 273.325,113.746 270.992,112.579 268.5,112C 290.046,139.451 302.712,170.617 306.5,205.5C 297.379,202.743 288.046,201.41 278.5,201.5C 278.923,186.441 278.256,171.441 276.5,156.5C 273.49,167.699 268.657,178.033 262,187.5C 239.794,211.764 212.128,224.097 179,224.5C 160.97,224.358 143.803,220.525 127.5,213C 126.167,212.333 124.833,212.333 123.5,213C 125.493,214.999 127.827,216.499 130.5,217.5C 142.75,247.592 164.75,265.759 196.5,272C 215.804,273.216 233.637,268.716 250,258.5C 256.344,260.613 262.511,263.113 268.5,266C 278.735,273.75 289.069,281.25 299.5,288.5C 296.768,298.027 293.435,307.36 289.5,316.5C 289.624,317.107 289.957,317.44 290.5,317.5C 270.698,345.338 247.864,370.671 222,393.5C 220.167,396 218.333,398.5 216.5,401C 214.186,400.41 212.019,399.243 210,397.5C 206.4,398.936 203.567,401.269 201.5,404.5C 199.312,401.478 196.645,398.978 193.5,397C 190.593,396.282 187.926,396.782 185.5,398.5C 187.516,393.312 190.85,389.146 195.5,386C 205.002,380.081 214.669,374.414 224.5,369C 229.269,365.96 233.603,362.46 237.5,358.5C 245.407,354.204 253.073,349.371 260.5,344C 258.008,344.579 255.675,345.746 253.5,347.5C 257.596,341.9 262.263,336.733 267.5,332C 263.355,333.751 259.355,336.084 255.5,339C 242.242,346.13 228.408,347.964 214,344.5C 213.209,343.255 212.709,341.922 212.5,340.5C 214.472,324.208 210.472,309.708 200.5,297C 198.443,296.695 196.443,296.695 194.5,297C 183.907,283.04 169.907,277.374 152.5,280C 145.702,281.706 139.369,284.373 133.5,288C 139.232,285.827 145.232,284.16 151.5,283C 168.667,280.34 182.5,285.84 193,299.5C 193.49,300.793 193.657,302.127 193.5,303.5C 191.692,303.509 190.025,303.009 188.5,302C 185.377,299.506 182.377,297.006 179.5,294.5C 177.617,294.876 176.117,295.876 175,297.5C 174.296,301.625 172.463,305.125 169.5,308C 162.428,307.811 155.428,307.145 148.5,306C 141.163,313.357 138.663,322.191 141,332.5C 141.505,334.518 142.005,336.518 142.5,338.5C 132.155,326.334 119.155,321.667 103.5,324.5C 98.7469,320.083 94.7469,315.083 91.5,309.5C 95.059,309.592 98.3924,308.759 101.5,307C 109.613,297.051 118.28,287.551 127.5,278.5C 127.167,278.167 126.833,277.833 126.5,277.5C 80.4819,286.485 48.4819,269.152 30.5,225.5C 22.1085,228.615 14.1085,227.949 6.5,223.5C 9.47179,221.359 11.9718,218.692 14,215.5C 13.5332,205.16 13.6999,194.826 14.5,184.5C 17.688,186.854 20.3547,189.688 22.5,193C 26.1667,196.333 29.8333,196.333 33.5,193C 36.2728,190.617 38.4395,187.783 40,184.5C 46.9822,196.413 57.4822,202.246 71.5,202C 78.2914,203.902 84.9581,206.069 91.5,208.5C 91.1667,207.833 90.8333,207.167 90.5,206.5C 85.3403,198.856 80.6736,190.856 76.5,182.5C 77.9103,180.045 80.0769,179.045 83,179.5C 87.212,180.147 91.3787,180.647 95.5,181C 84.4786,167.789 74.312,153.955 65,139.5C 53.8894,121.602 43.056,103.602 32.5,85.5C 30.5109,81.9035 28.5109,78.2369 26.5,74.5C 26.8333,74.1667 27.1667,73.8333 27.5,73.5C 28.5178,74.1925 29.5178,74.8592 30.5,75.5C 55.6085,89.3829 81.9419,100.55 109.5,109C 119.91,111.122 130.243,110.789 140.5,108C 141.357,107.311 142.023,106.478 142.5,105.5C 130.81,103.998 119.81,100.498 109.5,95C 107.457,93.292 105.79,91.292 104.5,89C 121.933,91.6421 137.933,87.6421 152.5,77C 149.482,76.501 146.482,76.6677 143.5,77.5C 135.169,77.4109 132.169,73.4109 134.5,65.5C 148.958,72.3242 163.292,72.1575 177.5,65C 174.854,64.5026 172.187,64.3359 169.5,64.5C 169.335,61.4816 169.502,58.4816 170,55.5C 179.771,65.5723 191.605,69.0723 205.5,66C 203.148,65.4241 202.148,63.9241 202.5,61.5C 202.969,57.9257 204.136,54.5924 206,51.5C 212.484,62.641 221.984,69.141 234.5,71C 232.813,69.087 232.313,66.9203 233,64.5C 237.938,55.6126 243.104,46.9459 248.5,38.5C 257.576,26.7117 266.91,15.045 276.5,3.5C 277.466,5.39605 277.799,7.39605 277.5,9.5 Z"/></g>
<g><path style="opacity:1" fill="#a683b7" d="M 277.5,9.5 C 277.437,14.2029 277.771,18.8696 278.5,23.5C 277.833,54.336 277.167,85.336 276.5,116.5C 275.893,116.376 275.56,116.043 275.5,115.5C 276.167,80.1667 276.833,44.8333 277.5,9.5 Z"/></g>
<g><path style="opacity:1" fill="#ba96c3" d="M 248.5,38.5 C 243.104,46.9459 237.938,55.6126 233,64.5C 232.313,66.9203 232.813,69.087 234.5,71C 221.984,69.141 212.484,62.641 206,51.5C 204.136,54.5924 202.969,57.9257 202.5,61.5C 202.148,63.9241 203.148,65.4241 205.5,66C 191.605,69.0723 179.771,65.5723 170,55.5C 169.502,58.4816 169.335,61.4816 169.5,64.5C 172.187,64.3359 174.854,64.5026 177.5,65C 163.292,72.1575 148.958,72.3242 134.5,65.5C 132.169,73.4109 135.169,77.4109 143.5,77.5C 146.482,76.6677 149.482,76.501 152.5,77C 137.933,87.6421 121.933,91.6421 104.5,89C 105.79,91.292 107.457,93.292 109.5,95C 119.81,100.498 130.81,103.998 142.5,105.5C 142.023,106.478 141.357,107.311 140.5,108C 130.243,110.789 119.91,111.122 109.5,109C 81.9419,100.55 55.6085,89.3829 30.5,75.5C 56.4529,85.4846 82.7863,94.4846 109.5,102.5C 110.167,102.333 110.833,102.167 111.5,102C 107.068,100.48 102.735,98.8136 98.5,97C 99.3104,91.2488 99.8104,85.4155 100,79.5C 111.92,85.5146 124.087,86.0146 136.5,81C 137.696,80.3457 137.696,79.8457 136.5,79.5C 133.438,81.2419 130.438,81.9086 127.5,81.5C 128.098,80.2054 128.598,78.8721 129,77.5C 129.356,71.0433 129.523,64.71 129.5,58.5C 139.246,65.4386 149.913,67.6052 161.5,65C 160.5,64.6667 159.5,64.3333 158.5,64C 163.534,59.4368 167.201,53.9368 169.5,47.5C 177.059,56.365 186.559,62.0316 198,64.5C 198.833,64.3333 199.667,64.1667 200.5,64C 198.754,63.5291 197.087,62.8624 195.5,62C 200.41,57.0132 203.91,51.1799 206,44.5C 211.592,54.926 219.426,63.2593 229.5,69.5C 229.833,69.3333 230.167,69.1667 230.5,69C 228.167,66.6667 225.833,64.3333 223.5,62C 226.167,60.6667 228.833,59.3333 231.5,58C 237.302,51.5216 242.969,45.0216 248.5,38.5 Z"/></g>
<g><path style="opacity:1" fill="#4b3b92" d="M 32.5,85.5 C 43.056,103.602 53.8894,121.602 65,139.5C 74.312,153.955 84.4786,167.789 95.5,181C 91.3787,180.647 87.212,180.147 83,179.5C 80.0769,179.045 77.9103,180.045 76.5,182.5C 80.6736,190.856 85.3403,198.856 90.5,206.5C 78.196,201.232 65.5293,197.065 52.5,194C 49.5863,187.499 45.9196,181.499 41.5,176C 45.4819,174.699 48.9819,172.533 52,169.5C 52.6667,166.833 52.6667,164.167 52,161.5C 49.8159,156.3 48.4826,150.966 48,145.5C 50.3822,146.554 52.8822,147.221 55.5,147.5C 58.3993,153.477 60.2327,159.81 61,166.5C 61.7714,159.911 60.7714,153.577 58,147.5C 48.8069,127.08 40.3069,106.413 32.5,85.5 Z"/></g>
<g><path style="opacity:1" fill="#8665aa" d="M 352.5,130.5 C 349.404,131.547 346.404,132.88 343.5,134.5C 342.232,155.696 333.566,173.03 317.5,186.5C 312.445,169.217 304.778,153.051 294.5,138C 302.029,131.483 310.362,126.15 319.5,122C 323.949,118.603 326.449,114.103 327,108.5C 329.094,111.103 331.594,113.103 334.5,114.5C 337.447,112.729 340.281,110.729 343,108.5C 344.542,113.884 346.209,119.217 348,124.5C 349.925,126.213 352.092,127.547 354.5,128.5C 354.145,129.522 353.478,130.189 352.5,130.5 Z"/></g>
<g><path style="opacity:1" fill="#140e12" d="M 244.5,110.5 C 245.392,112.362 245.559,114.362 245,116.5C 261.99,133.789 266.323,153.789 258,176.5C 253.47,182.171 247.637,184.004 240.5,182C 237.12,180.629 234.287,178.462 232,175.5C 231.667,176.167 231.333,176.833 231,177.5C 230.825,154.21 235.325,131.877 244.5,110.5 Z"/></g>
<g><path style="opacity:1" fill="#eb495b" d="M 254.5,132.5 C 252.97,133.211 251.637,134.211 250.5,135.5C 247.708,135.452 245.875,136.785 245,139.5C 243.426,142.492 243.259,145.492 244.5,148.5C 243.833,149.167 243.167,149.833 242.5,150.5C 241.456,146.741 240.122,143.075 238.5,139.5C 239.892,132.37 241.725,125.37 244,118.5C 248.726,122.302 252.226,126.969 254.5,132.5 Z"/></g>
<g><path style="opacity:0.006" fill="#fdfdfe" d="M 359.5,129.5 C 359.5,222.167 359.5,314.833 359.5,407.5C 311.833,407.5 264.167,407.5 216.5,407.5C 218.113,404.714 219.946,402.047 222,399.5C 235,387.167 248,374.833 261,362.5C 273.876,348.293 285.21,332.959 295,316.5C 299.458,308.62 302.625,300.287 304.5,291.5C 309.706,293.598 315.039,295.431 320.5,297C 332.106,299.811 341.939,296.978 350,288.5C 356.944,277.109 359.277,264.776 357,251.5C 351.183,232.346 339.016,218.846 320.5,211C 319.978,210.439 319.645,209.772 319.5,209C 337.139,188.873 347.639,165.373 351,138.5C 353.334,135 356.168,132 359.5,129.5 Z"/></g>
<g><path style="opacity:1" fill="#e98a85" d="M 254.5,132.5 C 261.534,146.627 262.034,160.96 256,175.5C 251.188,180.826 245.688,181.826 239.5,178.5C 238.402,172.912 238.402,167.245 239.5,161.5C 241.844,161.021 243.178,159.521 243.5,157C 242.713,154.901 242.38,152.734 242.5,150.5C 243.167,149.833 243.833,149.167 244.5,148.5C 247.292,148.548 249.125,147.215 250,144.5C 251.574,141.508 251.741,138.508 250.5,135.5C 251.637,134.211 252.97,133.211 254.5,132.5 Z"/></g>
<g><path style="opacity:1" fill="#4b3c93" d="M 352.5,130.5 C 350.832,132.34 349.332,134.34 348,136.5C 344.569,157.462 337.569,177.129 327,195.5C 324.908,198.681 322.575,201.681 320,204.5C 318.932,198.524 318.099,192.524 317.5,186.5C 333.566,173.03 342.232,155.696 343.5,134.5C 346.404,132.88 349.404,131.547 352.5,130.5 Z"/></g>
<g><path style="opacity:1" fill="#f0c5bf" d="M 250.5,135.5 C 251.741,138.508 251.574,141.508 250,144.5C 249.125,147.215 247.292,148.548 244.5,148.5C 243.259,145.492 243.426,142.492 245,139.5C 245.875,136.785 247.708,135.452 250.5,135.5 Z"/></g>
<g><path style="opacity:1" fill="#ba97c3" d="M 278.5,23.5 C 280.857,57.8357 283.024,92.1691 285,126.5C 284.282,125.549 283.449,125.383 282.5,126C 296.179,143.185 306.345,162.352 313,183.5C 315.813,192.034 316.979,200.701 316.5,209.5C 313.356,207.591 310.023,206.258 306.5,205.5C 302.712,170.617 290.046,139.451 268.5,112C 270.992,112.579 273.325,113.746 275.5,115.5C 275.56,116.043 275.893,116.376 276.5,116.5C 277.167,85.336 277.833,54.336 278.5,23.5 Z"/></g>
<g><path style="opacity:1" fill="#140d11" d="M 124.5,152.5 C 151.252,161.037 176.585,173.204 200.5,189C 198.874,188.805 197.207,188.805 195.5,189C 182.091,210.365 164.091,215.365 141.5,204C 132.111,195.845 127.778,185.511 128.5,173C 128.424,166.736 129.091,160.569 130.5,154.5C 128.297,154.396 126.297,153.73 124.5,152.5 Z"/></g>
<g><path style="opacity:1" fill="#ec495b" d="M 163.5,179.5 C 161.249,178.305 158.915,177.305 156.5,176.5C 153.42,172.288 149.42,170.955 144.5,172.5C 139.33,173.216 134.663,173.216 130.5,172.5C 130.21,166.918 131.043,161.584 133,156.5C 142.422,161.461 151.922,166.294 161.5,171C 162.713,173.687 163.38,176.52 163.5,179.5 Z"/></g>
<g><path style="opacity:1" fill="#ea495b" d="M 239.5,161.5 C 238.402,167.245 238.402,172.912 239.5,178.5C 235.508,177.01 233.175,174.177 232.5,170C 233.055,165.392 234.055,160.892 235.5,156.5C 236.134,158.772 237.468,160.439 239.5,161.5 Z"/></g>
<g><path style="opacity:1" fill="#f0c8c2" d="M 156.5,176.5 C 156.586,177.496 156.252,178.329 155.5,179C 149.635,180.237 145.969,178.07 144.5,172.5C 149.42,170.955 153.42,172.288 156.5,176.5 Z"/></g>
<g><path style="opacity:1" fill="#ea8b86" d="M 130.5,172.5 C 134.663,173.216 139.33,173.216 144.5,172.5C 145.969,178.07 149.635,180.237 155.5,179C 156.252,178.329 156.586,177.496 156.5,176.5C 158.915,177.305 161.249,178.305 163.5,179.5C 164.152,182.926 165.485,186.092 167.5,189C 171.143,189.832 172.81,188.332 172.5,184.5C 178.075,187.406 182.742,191.406 186.5,196.5C 180.558,204.469 172.558,208.135 162.5,207.5C 140.758,206.088 130.092,194.421 130.5,172.5 Z"/></g>
<g><path style="opacity:1" fill="#ec495c" d="M 186.5,196.5 C 182.742,191.406 178.075,187.406 172.5,184.5C 172.187,181.753 172.52,179.086 173.5,176.5C 180.531,180.016 187.531,183.516 194.5,187C 192.647,190.887 189.98,194.053 186.5,196.5 Z"/></g>
<g><path style="opacity:1" fill="#c4c6cd" d="M 273.5,174.5 C 274.124,174.917 274.457,175.584 274.5,176.5C 273.582,181.671 272.082,186.671 270,191.5C 269.333,188.5 269.333,185.5 270,182.5C 271.454,179.929 272.62,177.262 273.5,174.5 Z"/></g>
<g><path style="opacity:1" fill="#5f0e1e" d="M 275.5,178.5 C 276.655,185.321 276.821,192.321 276,199.5C 273.181,200.839 270.347,201.172 267.5,200.5C 271.954,193.805 274.62,186.472 275.5,178.5 Z"/></g>
<g><path style="opacity:1" fill="#c4c8d0" d="M 266.5,197.5 C 266.631,196.761 266.464,196.094 266,195.5C 261.574,200.434 256.74,204.767 251.5,208.5C 250.481,206.46 250.481,204.46 251.5,202.5C 257.5,198.5 262.5,193.5 266.5,187.5C 267.806,190.98 267.806,194.313 266.5,197.5 Z"/></g>
<g><path style="opacity:1" fill="#ba96c3" d="M 44.5,194.5 C 46.34,196.168 48.34,197.668 50.5,199C 66.3272,201.332 81.3272,206.165 95.5,213.5C 96.521,214.002 96.6877,214.668 96,215.5C 94.6124,214.446 93.1124,214.28 91.5,215C 93.5,217 95.5,219 97.5,221C 93.942,220.043 90.2753,219.043 86.5,218C 66.6392,220.245 52.6392,212.411 44.5,194.5 Z"/></g>
<g><path style="opacity:1" fill="#e7e7e9" d="M 266.5,197.5 C 262.395,204.018 257.562,210.018 252,215.5C 251.503,213.19 251.337,210.857 251.5,208.5C 256.74,204.767 261.574,200.434 266,195.5C 266.464,196.094 266.631,196.761 266.5,197.5 Z"/></g>
<g><path style="opacity:1" fill="#ec4a5b" d="M 345.5,287.5 C 335.749,287.783 326.416,285.95 317.5,282C 305.328,275.417 293.661,268.084 282.5,260C 265.349,249.045 246.683,244.712 226.5,247C 217.112,248.644 207.778,250.478 198.5,252.5C 191.698,251.58 189.698,247.913 192.5,241.5C 194.099,241.768 195.432,241.434 196.5,240.5C 214.954,238.897 231.62,232.73 246.5,222C 255.16,221.5 263.827,221.334 272.5,221.5C 276.577,223.282 280.91,224.115 285.5,224C 281.268,222.388 276.934,221.221 272.5,220.5C 265.191,219.816 257.858,219.316 250.5,219C 256.021,214.979 260.688,210.146 264.5,204.5C 290.178,202.052 313.511,208.218 334.5,223C 355.676,240.207 360.176,261.04 348,285.5C 347.292,286.381 346.458,287.047 345.5,287.5 Z"/></g>
<g><path style="opacity:1" fill="#c6cbd3" d="M 247.5,206.5 C 247.799,208.604 247.466,210.604 246.5,212.5C 239.888,216.972 232.888,220.639 225.5,223.5C 224.464,221.609 224.464,219.776 225.5,218C 233.013,214.411 240.346,210.578 247.5,206.5 Z"/></g>
<g><path style="opacity:1" fill="#2f2638" d="M 91.5,208.5 C 94.5976,209.216 97.2643,210.716 99.5,213C 96.468,212.313 93.8013,210.813 91.5,208.5 Z"/></g>
<g><path style="opacity:1" fill="#e7e8ea" d="M 225.5,223.5 C 232.888,220.639 239.888,216.972 246.5,212.5C 247.466,210.604 247.799,208.604 247.5,206.5C 247.56,205.957 247.893,205.624 248.5,205.5C 249.66,209.459 249.827,213.459 249,217.5C 242.083,223.541 234.25,227.874 225.5,230.5C 225.5,228.167 225.5,225.833 225.5,223.5 Z"/></g>
<g><path style="opacity:1" fill="#c5cad2" d="M 221.5,220.5 C 221.5,222.5 221.5,224.5 221.5,226.5C 214.88,228.428 208.214,230.261 201.5,232C 199.24,232.549 197.574,233.716 196.5,235.5C 195.343,232.727 194.676,229.727 194.5,226.5C 203.665,225.292 212.665,223.292 221.5,220.5 Z"/></g>
<g><path style="opacity:1" fill="#a12d4a" d="M 272.5,220.5 C 276.934,221.221 281.268,222.388 285.5,224C 280.91,224.115 276.577,223.282 272.5,221.5C 272.5,221.167 272.5,220.833 272.5,220.5 Z"/></g>
<g><path style="opacity:0.005" fill="#fefefe" d="M -0.5,224.5 C 5.81494,231.002 13.4816,235.502 22.5,238C 25.1227,241.412 27.6227,244.912 30,248.5C 36.8025,254.301 43.3025,260.468 49.5,267C 55.9614,272.316 63.1281,276.483 71,279.5C 78.2066,297.022 88.2066,312.688 101,326.5C 101.595,335.335 100.595,344.001 98,352.5C 94.3963,362.437 87.7296,369.437 78,373.5C 78.3399,377.842 80.8399,380.342 85.5,381C 94.1436,381.977 102.644,381.477 111,379.5C 111.688,380.332 111.521,380.998 110.5,381.5C 107.93,382.634 105.264,383.468 102.5,384C 108.993,385.94 115.66,386.773 122.5,386.5C 137.848,386.867 152.181,383.367 165.5,376C 169.821,375.501 174.154,375.334 178.5,375.5C 178.334,381.509 178.501,387.509 179,393.5C 179.491,398.31 181.158,402.644 184,406.5C 185.05,402.783 187.384,400.45 191,399.5C 194.621,401.615 198.121,403.948 201.5,406.5C 204.424,404.918 207.091,402.918 209.5,400.5C 212.208,402.266 214.208,404.599 215.5,407.5C 143.5,407.5 71.5,407.5 -0.5,407.5C -0.5,346.5 -0.5,285.5 -0.5,224.5 Z"/></g>
<g><path style="opacity:1" fill="#5e0d1c" d="M 137.5,225.5 C 147.21,233.354 158.21,238.521 170.5,241C 165.98,244.536 162.814,249.036 161,254.5C 151.096,246.437 143.262,236.771 137.5,225.5 Z"/></g>
<g><path style="opacity:1" fill="#4b3c92" d="M 6.5,223.5 C 14.1085,227.949 22.1085,228.615 30.5,225.5C 48.4819,269.152 80.4819,286.485 126.5,277.5C 126.833,277.833 127.167,278.167 127.5,278.5C 118.28,287.551 109.613,297.051 101.5,307C 98.3924,308.759 95.059,309.592 91.5,309.5C 84.8543,300.896 79.1876,291.563 74.5,281.5C 74.6667,281.167 74.8333,280.833 75,280.5C 81.5633,283.233 88.3966,284.399 95.5,284C 82.0314,281.734 69.6981,276.734 58.5,269C 46.2791,258.614 35.2791,247.114 25.5,234.5C 19.5427,231.669 13.5427,228.836 7.5,226C 6.00097,225.162 5.66763,224.329 6.5,223.5 Z"/></g>
<g><path style="opacity:1" fill="#e9eaec" d="M 196.5,235.5 C 197.574,233.716 199.24,232.549 201.5,232C 208.214,230.261 214.88,228.428 221.5,226.5C 221.5,224.5 221.5,222.5 221.5,220.5C 222.883,222.098 223.55,224.598 223.5,228C 223.167,229.5 222.833,231 222.5,232.5C 214.119,235.762 205.452,237.762 196.5,238.5C 196.5,237.5 196.5,236.5 196.5,235.5 Z"/></g>
<g><path style="opacity:1" fill="#dee0e4" d="M 137.5,221.5 C 137.56,220.957 137.893,220.624 138.5,220.5C 146.262,223.533 154.262,225.533 162.5,226.5C 162.911,229.553 163.577,232.553 164.5,235.5C 153.828,234.329 144.828,229.662 137.5,221.5 Z"/></g>
<g><path style="opacity:1" fill="#bfc3cb" d="M 193.5,233.5 C 184.936,234.37 175.936,234.37 166.5,233.5C 165.694,232.003 165.028,230.336 164.5,228.5C 173.81,227.502 183.143,227.168 192.5,227.5C 192.833,229.5 193.167,231.5 193.5,233.5 Z"/></g>
<g><path style="opacity:1" fill="#dfe0e3" d="M 193.5,233.5 C 194.15,235.435 194.483,237.435 194.5,239.5C 185.083,239.792 175.75,239.125 166.5,237.5C 166.5,236.167 166.5,234.833 166.5,233.5C 175.936,234.37 184.936,234.37 193.5,233.5 Z"/></g>
<g><path style="opacity:1" fill="#bf2f5c" d="M 196.5,240.5 C 195.432,241.434 194.099,241.768 192.5,241.5C 189.698,247.913 191.698,251.58 198.5,252.5C 207.778,250.478 217.112,248.644 226.5,247C 246.683,244.712 265.349,249.045 282.5,260C 293.661,268.084 305.328,275.417 317.5,282C 326.416,285.95 335.749,287.783 345.5,287.5C 343.053,290.899 339.72,293.065 335.5,294C 323.578,295.251 312.578,292.584 302.5,286C 292.815,279.824 283.481,273.157 274.5,266C 258.457,256.391 241.124,252.391 222.5,254C 225.167,254.667 227.833,255.333 230.5,256C 214.813,263.145 198.48,265.145 181.5,262C 175.404,260.8 169.404,259.3 163.5,257.5C 163.795,250.741 166.795,245.574 172.5,242C 174.199,241.042 176.033,240.542 178,240.5C 184.163,241.649 190.33,241.649 196.5,240.5 Z"/></g>
<g><path style="opacity:1" fill="#c9ced5" d="M 233.5,256.5 C 237.915,256.305 242.249,256.805 246.5,258C 241.871,260.898 237.037,263.398 232,265.5C 231.094,262.156 231.594,259.156 233.5,256.5 Z"/></g>
<g><path style="opacity:1" fill="#c4c9d0" d="M 226.5,259.5 C 227.5,259.5 228.5,259.5 229.5,259.5C 229.5,261.833 229.5,264.167 229.5,266.5C 221.267,268.372 212.933,269.705 204.5,270.5C 204.5,268.5 204.5,266.5 204.5,264.5C 212.288,264.345 219.621,262.679 226.5,259.5 Z"/></g>
<g><path style="opacity:1" fill="#c6c9d0" d="M 176.5,264.5 C 177.097,263.861 177.93,263.528 179,263.5C 186.441,264.842 193.941,265.675 201.5,266C 202.38,267.356 202.714,268.856 202.5,270.5C 193.524,269.756 184.857,267.756 176.5,264.5 Z"/></g>
<g><path style="opacity:1" fill="#ba96c3" d="M 154.5,283.5 C 162.803,282.574 170.137,284.74 176.5,290C 170.389,292.555 164.389,295.388 158.5,298.5C 154.044,296.536 149.711,294.369 145.5,292C 142.167,291.667 138.833,291.333 135.5,291C 141.599,287.585 147.932,285.085 154.5,283.5 Z"/></g>
<g><path style="opacity:1" fill="#b895c2" d="M 299.5,288.5 C 302.244,289.072 303.077,290.738 302,293.5C 298.955,301.922 295.121,309.922 290.5,317.5C 289.957,317.44 289.624,317.107 289.5,316.5C 293.435,307.36 296.768,298.027 299.5,288.5 Z"/></g>
<g><path style="opacity:1" fill="#8765ab" d="M 202.5,352.5 C 193.166,359.998 182.5,363.832 170.5,364C 158.791,359.984 150.124,352.484 144.5,341.5C 144.238,333.78 144.738,326.113 146,318.5C 146.848,315.302 148.348,312.469 150.5,310C 154.058,310.957 157.725,311.957 161.5,313C 167.322,314.503 172.155,313.003 176,308.5C 177.34,305.798 178.673,303.131 180,300.5C 183.807,306.156 188.973,308.656 195.5,308C 197.049,306.786 198.215,305.286 199,303.5C 203.826,309.639 206.492,316.639 207,324.5C 208.377,334.424 206.877,343.757 202.5,352.5 Z"/></g>
<g><path style="opacity:1" fill="#4b3c92" d="M 103.5,324.5 C 119.155,321.667 132.155,326.334 142.5,338.5C 143.167,339.5 143.833,340.5 144.5,341.5C 150.124,352.484 158.791,359.984 170.5,364C 182.5,363.832 193.166,359.998 202.5,352.5C 198.72,365.915 189.72,372.248 175.5,371.5C 166.651,371.459 158.651,368.959 151.5,364C 139.411,352.464 126.411,342.13 112.5,333C 109.384,330.141 106.384,327.308 103.5,324.5 Z"/></g>
<g><path style="opacity:1" fill="#4b3c93" d="M 253.5,347.5 C 238.242,355.976 221.909,360.476 204.5,361C 208.08,354.411 210.746,347.578 212.5,340.5C 212.709,341.922 213.209,343.255 214,344.5C 228.408,347.964 242.242,346.13 255.5,339C 259.355,336.084 263.355,333.751 267.5,332C 262.263,336.733 257.596,341.9 253.5,347.5 Z"/></g>
<g><path style="opacity:1" fill="#4b3b92" d="M 104.5,331.5 C 120.496,342.977 135.829,355.477 150.5,369C 154.263,371.548 158.263,373.548 162.5,375C 146.421,383.27 129.421,385.936 111.5,383C 115.336,380.916 119.003,378.583 122.5,376C 121.833,375.833 121.167,375.667 120.5,375.5C 108.472,378.113 96.4719,378.113 84.5,375.5C 100.594,365.251 107.261,350.584 104.5,331.5 Z"/></g>
<g><path style="opacity:1" fill="#4b3c92" d="M 237.5,358.5 C 233.603,362.46 229.269,365.96 224.5,369C 214.669,374.414 205.002,380.081 195.5,386C 190.85,389.146 187.516,393.312 185.5,398.5C 185.217,399.289 184.717,399.956 184,400.5C 181.48,392.362 180.314,384.028 180.5,375.5C 187.842,375.444 194.175,372.944 199.5,368C 212.677,366.706 225.343,363.539 237.5,358.5 Z"/></g>
</svg>
